<svg width="143" height="32" viewBox="0 0 143 32" fill="none" xmlns="http://www.w3.org/2000/svg">
<path opacity="0.9" d="M16.0732 32C11.8103 32 7.72205 30.3143 4.70774 27.3137C1.69342 24.3131 0 20.2435 0 16C0 11.7565 1.69342 7.68687 4.70774 4.68629C7.72205 1.68571 11.8103 0 16.0732 0C16.6356 0 17.175 0.222389 17.5726 0.618244C17.9703 1.0141 18.1937 1.55099 18.1937 2.11082C18.1937 2.67064 17.9703 3.20754 17.5726 3.60339C17.175 3.99925 16.6356 4.22164 16.0732 4.22164C14.0332 4.22186 12.0278 4.74715 10.2518 5.7465C8.47589 6.74585 6.98967 8.18531 5.93748 9.92514C4.88528 11.665 4.30286 13.646 4.24675 15.6761C4.19064 17.7061 4.66275 19.716 5.61725 21.5108C6.57175 23.3056 7.97621 24.8242 9.69428 25.9193C11.4123 27.0143 13.3857 27.6486 15.4226 27.7605C17.4596 27.8724 19.491 27.4581 21.3197 26.5579C23.1484 25.6576 24.7121 24.302 25.8592 22.6227C26.0162 22.3937 26.217 22.1976 26.4501 22.0458C26.6831 21.8941 26.944 21.7894 27.2177 21.738C27.4914 21.6865 27.7726 21.6892 28.0452 21.746C28.3179 21.8027 28.5766 21.9123 28.8067 22.0686C29.0368 22.2249 29.2337 22.4247 29.3862 22.6567C29.5387 22.8888 29.6438 23.1484 29.6954 23.4209C29.7471 23.6933 29.7444 23.9732 29.6874 24.2446C29.6304 24.516 29.5203 24.7736 29.3633 25.0026C27.8886 27.1587 25.9068 28.9233 23.5905 30.1429C21.2742 31.3624 18.6936 32 16.0732 32Z" fill="#341EFF"/>
<path fill-rule="evenodd" clip-rule="evenodd" d="M7.30664 10.5881L16.8686 21.4173L31.9996 4.78741L16.8686 15.6994L7.30664 10.5881Z" fill="#1CD265"/>
<path d="M44.4957 8.00674H37.75V4.82959H55.0212V8.00674H48.2756V25.0478H44.4957V8.00674Z" fill="white"/>
<path d="M57.1399 9.6242H60.7744V25.0478H57.1399V9.6242ZM58.9717 7.08248C58.3126 7.08248 57.7602 6.88029 57.3144 6.47593C56.8685 6.05231 56.6456 5.53241 56.6456 4.91624C56.6456 4.30006 56.8685 3.78979 57.3144 3.38543C57.7602 2.96181 58.3126 2.75 58.9717 2.75C59.6308 2.75 60.1832 2.95218 60.629 3.35655C61.0749 3.74166 61.2978 4.23267 61.2978 4.82959C61.2978 5.46502 61.0749 6.00417 60.629 6.44705C60.2026 6.87067 59.6501 7.08248 58.9717 7.08248Z" fill="white"/>
<path d="M85.142 9.4509C87.0998 9.4509 88.6505 10.0189 89.7942 11.155C90.9379 12.2718 91.5097 13.9567 91.5097 16.2096V25.0478H87.8752V16.6717C87.8752 15.3238 87.5747 14.3129 86.9738 13.639C86.3729 12.9458 85.5103 12.5992 84.386 12.5992C83.1648 12.5992 82.186 13.0035 81.4494 13.8123C80.7128 14.6017 80.3445 15.7378 80.3445 17.2205V25.0478H76.71V16.6717C76.71 15.3238 76.4095 14.3129 75.8086 13.639C75.2077 12.9458 74.3451 12.5992 73.2208 12.5992C71.9802 12.5992 70.9916 12.9939 70.2551 13.7834C69.5378 14.5729 69.1792 15.7185 69.1792 17.2205V25.0478H65.5447V9.6242H69.0048V11.5883C69.5863 10.8951 70.3132 10.3655 71.1855 9.99968C72.0578 9.63382 73.027 9.4509 74.0931 9.4509C75.2561 9.4509 76.2835 9.67234 77.1752 10.1152C78.0862 10.5388 78.8034 11.1743 79.3268 12.0215C79.9665 11.2128 80.7903 10.587 81.7983 10.1441C82.8062 9.68196 83.9208 9.4509 85.142 9.4509Z" fill="white"/>
<path d="M96.1541 9.6242H99.7887V25.0478H96.1541V9.6242ZM97.9859 7.08248C97.3269 7.08248 96.7744 6.88029 96.3286 6.47593C95.8828 6.05231 95.6599 5.53241 95.6599 4.91624C95.6599 4.30006 95.8828 3.78979 96.3286 3.38543C96.7744 2.96181 97.3269 2.75 97.9859 2.75C98.645 2.75 99.1974 2.95218 99.6433 3.35655C100.089 3.74166 100.312 4.23267 100.312 4.82959C100.312 5.46502 100.089 6.00417 99.6433 6.44705C99.2168 6.87067 98.6644 7.08248 97.9859 7.08248Z" fill="white"/>
<path d="M111.683 25.25C110.074 25.25 108.63 24.913 107.35 24.2391C106.071 23.5651 105.073 22.6313 104.355 21.4374C103.638 20.2243 103.28 18.8572 103.28 17.336C103.28 15.8148 103.638 14.4573 104.355 13.2635C105.073 12.0696 106.061 11.1358 107.321 10.4618C108.601 9.78787 110.054 9.4509 111.683 9.4509C113.214 9.4509 114.551 9.75899 115.695 10.3752C116.858 10.9913 117.73 11.8771 118.312 13.0324L115.521 14.6499C115.075 13.9374 114.513 13.4079 113.834 13.0613C113.175 12.6954 112.448 12.5125 111.654 12.5125C110.297 12.5125 109.172 12.9554 108.281 13.8411C107.389 14.7076 106.943 15.8726 106.943 17.336C106.943 18.7994 107.379 19.974 108.252 20.8598C109.143 21.7263 110.277 22.1595 111.654 22.1595C112.448 22.1595 113.175 21.9862 113.834 21.6396C114.513 21.2737 115.075 20.7346 115.521 20.0221L118.312 21.6396C117.711 22.7949 116.829 23.6903 115.666 24.3257C114.522 24.9419 113.195 25.25 111.683 25.25Z" fill="white"/>
<path d="M127.385 9.4509C129.673 9.4509 131.417 9.99968 132.619 11.0972C133.84 12.1755 134.451 13.8123 134.451 16.0074V25.0478H131.02V23.1704C130.574 23.8444 129.934 24.3643 129.101 24.7301C128.287 25.0767 127.298 25.25 126.135 25.25C124.972 25.25 123.954 25.0574 123.082 24.6723C122.21 24.268 121.531 23.7192 121.047 23.026C120.581 22.3135 120.349 21.5144 120.349 20.6287C120.349 19.2423 120.863 18.1351 121.89 17.3071C122.937 16.4599 124.575 16.0363 126.804 16.0363H130.816V15.8052C130.816 14.7269 130.487 13.8989 129.828 13.3212C129.188 12.7436 128.229 12.4548 126.949 12.4548C126.077 12.4548 125.214 12.5895 124.361 12.8591C123.528 13.1287 122.82 13.5042 122.239 13.9856L120.814 11.3572C121.628 10.741 122.607 10.2693 123.751 9.94191C124.894 9.61457 126.106 9.4509 127.385 9.4509ZM126.891 22.6216C127.802 22.6216 128.607 22.4194 129.304 22.0151C130.022 21.5915 130.526 20.9945 130.816 20.2243V18.4336H127.065C124.972 18.4336 123.925 19.1171 123.925 20.4843C123.925 21.139 124.187 21.6589 124.71 22.044C125.234 22.4291 125.961 22.6216 126.891 22.6216Z" fill="white"/>
<path d="M138.865 3.61649H142.5V25.0478H138.865V3.61649Z" fill="white"/>
</svg>
