<svg width="30" height="30" viewBox="0 0 30 30" fill="none" xmlns="http://www.w3.org/2000/svg">
<path d="M15.0686 30C11.0722 30 7.23942 28.4196 4.4135 25.6066C1.58758 22.7936 0 18.9782 0 15C0 11.0218 1.58758 7.20644 4.4135 4.3934C7.23942 1.58035 11.0722 0 15.0686 0C15.5959 0 16.1015 0.20849 16.4743 0.579604C16.8471 0.950718 17.0566 1.45406 17.0566 1.97889C17.0566 2.50373 16.8471 3.00707 16.4743 3.37818C16.1015 3.74929 15.5959 3.95778 15.0686 3.95778C13.1561 3.958 11.2761 4.45045 9.6111 5.38734C7.94614 6.32424 6.55281 7.67373 5.56638 9.30482C4.57995 10.9359 4.03393 12.7932 3.98133 14.6963C3.92872 16.5994 4.37133 18.4838 5.26617 20.1664C6.16102 21.849 7.47769 23.2727 9.08838 24.2993C10.6991 25.3259 12.549 25.9205 14.4587 26.0254C16.3684 26.1303 18.2728 25.742 19.9872 24.898C21.7016 24.054 23.1676 22.7832 24.243 21.2088C24.3902 20.9941 24.5784 20.8103 24.7969 20.668C25.0154 20.5257 25.26 20.4276 25.5166 20.3794C25.7732 20.3311 26.0368 20.3337 26.2924 20.3869C26.548 20.44 26.7906 20.5428 27.0063 20.6893C27.222 20.8358 27.4066 21.0232 27.5495 21.2407C27.6925 21.4582 27.791 21.7016 27.8395 21.9571C27.8879 22.2125 27.8854 22.4749 27.8319 22.7293C27.7785 22.9838 27.6753 23.2253 27.5281 23.44C26.1455 25.4613 24.2876 27.1156 22.1161 28.2589C19.9446 29.4023 17.5252 30 15.0686 30Z" fill="#341EFF"/>
<path fill-rule="evenodd" clip-rule="evenodd" d="M6.85059 9.92644L15.815 20.0788L30.0002 4.48828L15.815 14.7183L6.85059 9.92644Z" fill="#1CD265"/>
</svg>
