<svg width="134" height="30" viewBox="0 0 134 30" fill="none" xmlns="http://www.w3.org/2000/svg">
<path d="M15.0686 30C11.0722 30 7.23942 28.4196 4.4135 25.6066C1.58758 22.7936 0 18.9782 0 15C0 11.0218 1.58758 7.20644 4.4135 4.3934C7.23942 1.58035 11.0722 0 15.0686 0C15.5959 0 16.1015 0.20849 16.4743 0.579604C16.8471 0.950718 17.0566 1.45406 17.0566 1.97889C17.0566 2.50373 16.8471 3.00707 16.4743 3.37818C16.1015 3.74929 15.5959 3.95778 15.0686 3.95778C13.1561 3.958 11.2761 4.45045 9.6111 5.38734C7.94614 6.32424 6.55281 7.67373 5.56638 9.30482C4.57995 10.9359 4.03393 12.7932 3.98133 14.6963C3.92872 16.5994 4.37133 18.4838 5.26617 20.1664C6.16102 21.849 7.47769 23.2727 9.08838 24.2993C10.6991 25.3259 12.549 25.9205 14.4587 26.0254C16.3684 26.1303 18.2728 25.742 19.9872 24.898C21.7016 24.054 23.1676 22.7832 24.243 21.2088C24.3902 20.9941 24.5784 20.8103 24.7969 20.668C25.0154 20.5257 25.26 20.4276 25.5166 20.3794C25.7732 20.3311 26.0368 20.3337 26.2924 20.3869C26.548 20.44 26.7906 20.5428 27.0063 20.6893C27.222 20.8358 27.4066 21.0232 27.5495 21.2407C27.6925 21.4582 27.791 21.7016 27.8395 21.9571C27.8879 22.2125 27.8854 22.4749 27.8319 22.7293C27.7785 22.9838 27.6753 23.2253 27.5281 23.44C26.1455 25.4613 24.2876 27.1156 22.1161 28.2589C19.9446 29.4023 17.5252 30 15.0686 30Z" fill="#341EFF"/>
<path fill-rule="evenodd" clip-rule="evenodd" d="M6.85059 9.92644L15.815 20.0788L30.0002 4.48828L15.815 14.7183L6.85059 9.92644Z" fill="#1CD265"/>
<path d="M41.7147 7.50632H35.3906V4.52774H51.5824V7.50632H45.2583V23.4823H41.7147V7.50632Z" fill="#000047"/>
<path d="M53.5687 9.02268H56.976V23.4823H53.5687V9.02268ZM55.286 6.63982C54.6681 6.63982 54.1502 6.45028 53.7322 6.07118C53.3142 5.67404 53.1053 5.18664 53.1053 4.60897C53.1053 4.03131 53.3142 3.55293 53.7322 3.17384C54.1502 2.7767 54.6681 2.57812 55.286 2.57812C55.9038 2.57812 56.4218 2.76767 56.8397 3.14676C57.2577 3.5078 57.4667 3.96813 57.4667 4.52774C57.4667 5.12345 57.2577 5.62891 56.8397 6.04411C56.4399 6.44125 55.922 6.63982 55.286 6.63982Z" fill="#000047"/>
<path d="M79.8206 8.86022C81.6561 8.86022 83.1099 9.39275 84.1821 10.4578C85.2542 11.5048 85.7903 13.0844 85.7903 15.1965V23.4823H82.383V15.6297C82.383 14.3661 82.1013 13.4183 81.538 12.7865C80.9746 12.1367 80.1659 11.8117 79.1119 11.8117C77.967 11.8117 77.0493 12.1908 76.3588 12.949C75.6682 13.6891 75.3229 14.7542 75.3229 16.1442V23.4823H71.9156V15.6297C71.9156 14.3661 71.6339 13.4183 71.0706 12.7865C70.5072 12.1367 69.6985 11.8117 68.6445 11.8117C67.4815 11.8117 66.5547 12.1818 65.8641 12.9219C65.1917 13.662 64.8555 14.7361 64.8555 16.1442V23.4823H61.4482V9.02268H64.692V10.864C65.2372 10.2141 65.9186 9.71768 66.7364 9.3747C67.5542 9.03171 68.4628 8.86022 69.4623 8.86022C70.5526 8.86022 71.5158 9.06781 72.3517 9.48301C73.2058 9.88015 73.8782 10.4759 74.3689 11.2702C74.9686 10.512 75.7409 9.92528 76.6859 9.51009C77.6308 9.07684 78.6758 8.86022 79.8206 8.86022Z" fill="#000047"/>
<path d="M90.1445 9.02268H93.5519V23.4823H90.1445V9.02268ZM91.8618 6.63982C91.2439 6.63982 90.726 6.45028 90.3081 6.07118C89.8901 5.67404 89.6811 5.18664 89.6811 4.60897C89.6811 4.03131 89.8901 3.55293 90.3081 3.17384C90.726 2.7767 91.2439 2.57812 91.8618 2.57812C92.4797 2.57812 92.9976 2.76767 93.4156 3.14676C93.8335 3.5078 94.0425 3.96813 94.0425 4.52774C94.0425 5.12345 93.8335 5.62891 93.4156 6.04411C93.0158 6.44125 92.4979 6.63982 91.8618 6.63982Z" fill="#000047"/>
<path d="M104.702 23.6719C103.194 23.6719 101.84 23.356 100.641 22.7241C99.4415 22.0923 98.5056 21.2168 97.8332 20.0976C97.1608 18.9603 96.8246 17.6786 96.8246 16.2525C96.8246 14.8264 97.1608 13.5537 97.8332 12.4345C98.5056 11.3153 99.4324 10.4398 100.614 9.80795C101.813 9.17613 103.176 8.86022 104.702 8.86022C106.138 8.86022 107.392 9.14905 108.464 9.72671C109.555 10.3044 110.372 11.1348 110.917 12.2179L108.301 13.7343C107.883 13.0663 107.356 12.5699 106.72 12.245C106.102 11.902 105.42 11.7305 104.675 11.7305C103.403 11.7305 102.349 12.1457 101.513 12.9761C100.677 13.7884 100.259 14.8806 100.259 16.2525C100.259 17.6245 100.668 18.7256 101.486 19.556C102.322 20.3684 103.385 20.7745 104.675 20.7745C105.42 20.7745 106.102 20.6121 106.72 20.2871C107.356 19.9441 107.883 19.4387 108.301 18.7708L110.917 20.2871C110.354 21.3702 109.527 22.2097 108.437 22.8054C107.365 23.383 106.12 23.6719 104.702 23.6719Z" fill="#000047"/>
<path d="M119.424 8.86022C121.568 8.86022 123.204 9.3747 124.33 10.4037C125.475 11.4146 126.048 12.949 126.048 15.0069V23.4823H122.831V21.7223C122.413 22.3541 121.813 22.8415 121.032 23.1845C120.269 23.5094 119.342 23.6719 118.252 23.6719C117.161 23.6719 116.207 23.4914 115.389 23.1303C114.572 22.7512 113.936 22.2367 113.481 21.5869C113.045 20.9189 112.827 20.1698 112.827 19.3394C112.827 18.0396 113.309 17.0017 114.272 16.2254C115.253 15.4311 116.789 15.034 118.879 15.034H122.64V14.8174C122.64 13.8065 122.331 13.0302 121.713 12.4887C121.114 11.9471 120.214 11.6763 119.015 11.6763C118.197 11.6763 117.388 11.8027 116.589 12.0554C115.807 12.3081 115.144 12.6602 114.599 13.1115L113.263 10.6474C114.026 10.0697 114.944 9.62742 116.016 9.32054C117.089 9.01366 118.224 8.86022 119.424 8.86022ZM118.96 21.2078C119.814 21.2078 120.569 21.0182 121.223 20.6391C121.895 20.242 122.368 19.6824 122.64 18.9603V17.2815H119.124C117.161 17.2815 116.18 17.9223 116.18 19.204C116.18 19.8178 116.425 20.3052 116.916 20.6662C117.407 21.0273 118.088 21.2078 118.96 21.2078Z" fill="#000047"/>
<path d="M130.186 3.39046H133.594V23.4823H130.186V3.39046Z" fill="#000047"/>
</svg>
